# xmcd
#
# Track frame offsets: 
#        150
#        23308
#        45471
#        60675
#        80058
#        95170
#        114111
#        129979
#        140893
#        152379
#        167528
#        179991
#        190509
#        205602
#
# Disc length: 2944 seconds
#
# Revision: 0
# Processed by: cddbd v1.5.2PL0 Copyright (c) Steve Scherf et al.
# Submitted via: ExactAudioCopy v0.99pb1
#
DISCID=b10b7e0e
DTITLE=Bharath And His Rhythm Four - Friday Night Fatty
DYEAR=2007
DGENRE=Blues
TTITLE0=Don't Have To Hunt No More
TTITLE1=Gin Drinkin' Woman
TTITLE2=You're The One
TTITLE3=Louisiana Blues
TTITLE4=Born Blind
TTITLE5=Sweet Little Angel
TTITLE6=Friday Night Fatty
TTITLE7=Huckle Boogie
TTITLE8=I Need A Change
TTITLE9=Little Girl
TTITLE10=Talk To Me Baby
TTITLE11=Take A Walk With Me
TTITLE12=Ludella
TTITLE13=Fast Boogie
EXTD=
EXTT0=
EXTT1=
EXTT2=
EXTT3=
EXTT4=
EXTT5=
EXTT6=
EXTT7=
EXTT8=
EXTT9=
EXTT10=
EXTT11=
EXTT12=
EXTT13=
PLAYORDER=
